<svg width="21" height="37" viewBox="0 0 21 37" fill="none" xmlns="http://www.w3.org/2000/svg">
<path d="M14.8495 17.1979L7.35195 15.0042C6.48417 14.7543 5.8802 13.942 5.8802 13.0395C5.8802 11.908 6.79657 10.9916 7.92815 10.9916H12.5308C13.3778 10.9916 14.2108 11.2484 14.9051 11.7205C15.3285 12.0051 15.8978 11.9357 16.2588 11.5817L18.6747 9.22133C19.1676 8.74231 19.0981 7.94396 18.5497 7.52049C16.8489 6.18759 14.7246 5.44477 12.5447 5.43783V2.10558C12.5447 1.49467 12.0449 0.994827 11.434 0.994827H9.21246C8.60154 0.994827 8.10171 1.49467 8.10171 2.10558V5.43783H7.92815C3.50597 5.43783 -0.0484281 9.23521 0.361161 13.7407C0.652733 16.941 3.09639 19.5444 6.17872 20.4469L13.2945 22.5295C14.1622 22.7864 14.7662 23.5917 14.7662 24.4942C14.7662 25.6257 13.8498 26.5421 12.7183 26.5421H8.11559C7.26864 26.5421 6.43558 26.2852 5.74136 25.8132C5.31789 25.5285 4.74863 25.598 4.38763 25.952L1.97175 28.3124C1.47885 28.7914 1.54828 29.5897 2.09671 30.0132C3.79755 31.3461 5.92186 32.0889 8.10171 32.0959V35.4281C8.10171 36.039 8.60154 36.5389 9.21246 36.5389H11.434C12.0449 36.5389 12.5447 36.039 12.5447 35.4281V32.082C15.7798 32.0195 18.8135 30.0965 19.8826 27.035C21.3752 22.7586 18.869 18.3711 14.8495 17.1979Z" fill="white"/>
</svg>
