<svg width="36" height="36" viewBox="0 0 36 36" fill="none" xmlns="http://www.w3.org/2000/svg">
<path d="M35.3876 13.9464L33.8168 12.3756C33.1661 11.7249 32.1112 11.7249 31.4605 12.3756L31.0678 12.7683L23.2136 4.91409L23.6063 4.52138C24.257 3.87068 24.257 2.81575 23.6063 2.16513L22.0355 0.594247C21.3848 -0.0564451 20.3298 -0.0564451 19.6792 0.594247L11.0396 9.23387C10.3889 9.88457 10.3889 10.9395 11.0396 11.5901L12.6104 13.1609C13.2611 13.8116 14.316 13.8116 14.9666 13.1609L15.3594 12.7682L18.1083 15.5172L12.4824 21.1431L12.0897 20.7504C11.2221 19.8829 9.81554 19.8829 8.94797 20.7504L0.982218 28.7163C0.114651 29.5839 0.114651 30.9904 0.982218 31.858L4.12391 34.9997C4.99147 35.8672 6.39803 35.8672 7.2656 34.9997L15.2314 27.0339C16.099 26.1663 16.099 24.7597 15.2314 23.8922L14.8387 23.4995L20.4647 17.8735L23.2136 20.6225L22.8209 21.0152C22.1702 21.6659 22.1702 22.7208 22.8209 23.3714L24.3917 24.9423C25.0424 25.5929 26.0973 25.5929 26.748 24.9423L35.3876 16.3026C36.0382 15.652 36.0382 14.5971 35.3876 13.9464Z" fill="white"/>
</svg>
