<svg width="36" height="35" viewBox="0 0 36 35" fill="none" xmlns="http://www.w3.org/2000/svg">
<path d="M34.7051 19.7005H19.2011L29.5264 30.0259C29.9211 30.4205 30.5705 30.4526 30.9763 30.0703C33.5049 27.6881 35.2442 24.4767 35.7545 20.8668C35.842 20.2487 35.3291 19.7005 34.7051 19.7005ZM33.6708 15.4666C33.1325 7.66134 26.8953 1.42416 19.09 0.885778C18.4941 0.844615 17.9923 1.34706 17.9923 1.94425V16.5643H32.613C33.2102 16.5643 33.712 16.0625 33.6708 15.4666ZM14.8561 19.7005V4.19646C14.8561 3.57248 14.3079 3.05958 13.6905 3.14713C5.90412 4.24742 -0.0475284 11.0498 0.229505 19.202C0.514379 27.5744 7.72313 34.4401 16.0995 34.335C19.3925 34.2938 22.4353 33.2327 24.9371 31.4581C25.4533 31.0922 25.4872 30.3323 25.0397 29.8848L14.8561 19.7005Z" fill="white"/>
</svg>
