<svg width="33" height="32" viewBox="0 0 33 32" fill="none" xmlns="http://www.w3.org/2000/svg">
<path d="M16.5479 0.772011C7.95754 0.772011 0.997437 7.73212 0.997437 16.3225C0.997437 24.9129 7.95754 31.873 16.5479 31.873C25.1384 31.873 32.0985 24.9129 32.0985 16.3225C32.0985 7.73212 25.1384 0.772011 16.5479 0.772011ZM25.5773 18.0782C25.5773 18.4921 25.2387 18.8307 24.8248 18.8307H19.0561V24.5994C19.0561 25.0133 18.7175 25.3519 18.3037 25.3519H14.7922C14.3784 25.3519 14.0398 25.0133 14.0398 24.5994V18.8307H8.27106C7.85722 18.8307 7.51862 18.4921 7.51862 18.0782V14.5668C7.51862 14.153 7.85722 13.8144 8.27106 13.8144H14.0398V8.04564C14.0398 7.63179 14.3784 7.29319 14.7922 7.29319H18.3037C18.7175 7.29319 19.0561 7.63179 19.0561 8.04564V13.8144H24.8248C25.2387 13.8144 25.5773 14.153 25.5773 14.5668V18.0782Z" fill="white"/>
</svg>
