<svg width="28" height="24" viewBox="0 0 28 24" fill="none" xmlns="http://www.w3.org/2000/svg">
<path d="M8.43845 9.90665V14.072C8.43845 14.7621 7.87899 15.3216 7.18885 15.3216H1.9128C1.22266 15.3216 0.663208 14.7621 0.663208 14.072V9.90665C0.663208 9.21651 1.22266 8.65705 1.9128 8.65705H7.18885C7.87899 8.65705 8.43845 9.21651 8.43845 9.90665ZM0.663208 18.2373V22.4026C0.663208 23.0927 1.22266 23.6522 1.9128 23.6522H7.18885C7.87899 23.6522 8.43845 23.0927 8.43845 22.4026V18.2373C8.43845 17.5471 7.87899 16.9877 7.18885 16.9877H1.9128C1.22266 16.9877 0.663208 17.5471 0.663208 18.2373ZM7.18885 0.326424H1.9128C1.22266 0.326424 0.663208 0.885878 0.663208 1.57602V5.74133C0.663208 6.43147 1.22266 6.99093 1.9128 6.99093H7.18885C7.87899 6.99093 8.43845 6.43147 8.43845 5.74133V1.57602C8.43845 0.885878 7.87899 0.326424 7.18885 0.326424ZM11.3542 23.6522H26.0716C26.7618 23.6522 27.3212 23.0927 27.3212 22.4026V18.2373C27.3212 17.5471 26.7618 16.9877 26.0716 16.9877H11.3542C10.664 16.9877 10.1046 17.5471 10.1046 18.2373V22.4026C10.1046 23.0927 10.664 23.6522 11.3542 23.6522ZM10.1046 1.57602V5.74133C10.1046 6.43147 10.664 6.99093 11.3542 6.99093H26.0716C26.7618 6.99093 27.3212 6.43147 27.3212 5.74133V1.57602C27.3212 0.885878 26.7618 0.326424 26.0716 0.326424H11.3542C10.664 0.326424 10.1046 0.885878 10.1046 1.57602ZM11.3542 15.3216H26.0716C26.7618 15.3216 27.3212 14.7621 27.3212 14.072V9.90665C27.3212 9.21651 26.7618 8.65705 26.0716 8.65705H11.3542C10.664 8.65705 10.1046 9.21651 10.1046 9.90665V14.072C10.1046 14.7621 10.664 15.3216 11.3542 15.3216Z" fill="white"/>
</svg>
