<svg width="36" height="26" viewBox="0 0 36 26" fill="none" xmlns="http://www.w3.org/2000/svg">
<path d="M5.55182 11.101C7.51229 11.101 9.10622 9.50711 9.10622 7.54663C9.10622 5.58616 7.51229 3.99223 5.55182 3.99223C3.59134 3.99223 1.99742 5.58616 1.99742 7.54663C1.99742 9.50711 3.59134 11.101 5.55182 11.101ZM30.4326 11.101C32.3931 11.101 33.987 9.50711 33.987 7.54663C33.987 5.58616 32.3931 3.99223 30.4326 3.99223C28.4722 3.99223 26.8782 5.58616 26.8782 7.54663C26.8782 9.50711 28.4722 11.101 30.4326 11.101ZM32.2098 12.8782H28.6554C27.678 12.8782 26.7949 13.2726 26.1507 13.9112C28.3889 15.1386 29.9772 17.3546 30.3216 19.987H33.987C34.9701 19.987 35.7642 19.1929 35.7642 18.2098V16.4326C35.7642 14.4722 34.1703 12.8782 32.2098 12.8782ZM17.9922 12.8782C21.43 12.8782 24.2124 10.0958 24.2124 6.65803C24.2124 3.22026 21.43 0.437828 17.9922 0.437828C14.5545 0.437828 11.772 3.22026 11.772 6.65803C11.772 10.0958 14.5545 12.8782 17.9922 12.8782ZM22.2575 14.6554H21.7966C20.6414 15.2108 19.3585 15.544 17.9922 15.544C16.626 15.544 15.3486 15.2108 14.1879 14.6554H13.7269C10.1948 14.6554 7.32902 17.5212 7.32902 21.0534V22.6528C7.32902 24.1246 8.52308 25.3186 9.99482 25.3186H25.9896C27.4614 25.3186 28.6554 24.1246 28.6554 22.6528V21.0534C28.6554 17.5212 25.7897 14.6554 22.2575 14.6554ZM9.83376 13.9112C9.18953 13.2726 8.30648 12.8782 7.32902 12.8782H3.77462C1.81414 12.8782 0.220215 14.4722 0.220215 16.4326V18.2098C0.220215 19.1929 1.0144 19.987 1.99742 19.987H5.65734C6.00723 17.3546 7.5956 15.1386 9.83376 13.9112Z" fill="white"/>
</svg>
